%TF.GenerationSoftware,KiCad,Pcbnew,9.0.0*%
%TF.CreationDate,2025-05-26T13:28:11+01:00*%
%TF.ProjectId,WonderTANG,576f6e64-6572-4544-914e-472e6b696361,2.0b (RCC Rev 1)*%
%TF.SameCoordinates,Original*%
%TF.FileFunction,Soldermask,Bot*%
%TF.FilePolarity,Negative*%
%FSLAX46Y46*%
G04 Gerber Fmt 4.6, Leading zero omitted, Abs format (unit mm)*
G04 Created by KiCad (PCBNEW 9.0.0) date 2025-05-26 13:28:11*
%MOMM*%
%LPD*%
G01*
G04 APERTURE LIST*
%ADD10C,0.100000*%
%ADD11C,1.600000*%
%ADD12R,1.600000X1.600000*%
%ADD13R,2.200000X2.200000*%
%ADD14O,2.200000X2.200000*%
%ADD15R,2.400000X1.600000*%
%ADD16O,2.400000X1.600000*%
%ADD17O,1.600000X1.600000*%
%ADD18R,1.700000X1.700000*%
%ADD19O,1.700000X1.700000*%
%ADD20C,1.200000*%
%ADD21O,1.200000X2.200000*%
%ADD22O,2.200000X1.200000*%
%ADD23C,4.900000*%
%ADD24R,1.270000X7.620000*%
%ADD25R,1.500000X1.500000*%
%ADD26C,1.500000*%
%ADD27R,1.600000X2.400000*%
%ADD28O,1.600000X2.400000*%
%ADD29R,1.800000X1.800000*%
%ADD30C,1.800000*%
G04 APERTURE END LIST*
D10*
X165099116Y-120830637D02*
X165111003Y-128241567D01*
X164439779Y-128890783D01*
X99692697Y-128904232D01*
X99061820Y-128253793D01*
X99038202Y-120811389D01*
X165099116Y-120830637D01*
G36*
X165099116Y-120830637D02*
G01*
X165111003Y-128241567D01*
X164439779Y-128890783D01*
X99692697Y-128904232D01*
X99061820Y-128253793D01*
X99038202Y-120811389D01*
X165099116Y-120830637D01*
G37*
X99038202Y-120811389D02*
X99029122Y-120811387D01*
X99037993Y-120745365D01*
X99038202Y-120811389D01*
G36*
X99038202Y-120811389D02*
G01*
X99029122Y-120811387D01*
X99037993Y-120745365D01*
X99038202Y-120811389D01*
G37*
D11*
%TO.C,C6*%
X106710000Y-74265000D03*
X104210000Y-74265000D03*
%TD*%
D12*
%TO.C,C1*%
X92242000Y-111760000D03*
D11*
X94742000Y-111760000D03*
%TD*%
D13*
%TO.C,D2*%
X109055000Y-67665000D03*
D14*
X98895000Y-67665000D03*
%TD*%
D11*
%TO.C,C8*%
X81935000Y-67310000D03*
X79435000Y-67310000D03*
%TD*%
%TO.C,C11*%
X89525000Y-74265000D03*
X87025000Y-74265000D03*
%TD*%
%TO.C,C5*%
X88920000Y-67310000D03*
X91420000Y-67310000D03*
%TD*%
D15*
%TO.C,U1*%
X101630000Y-79345000D03*
D16*
X101630000Y-81885000D03*
X101630000Y-84425000D03*
X101630000Y-86965000D03*
X101630000Y-89505000D03*
X101630000Y-92045000D03*
X101630000Y-94585000D03*
X101630000Y-97125000D03*
X101630000Y-99665000D03*
X101630000Y-102205000D03*
X109250000Y-102205000D03*
X109250000Y-99665000D03*
X109250000Y-97125000D03*
X109250000Y-94585000D03*
X109250000Y-92045000D03*
X109250000Y-89505000D03*
X109250000Y-86965000D03*
X109250000Y-84425000D03*
X109250000Y-81885000D03*
X109250000Y-79345000D03*
%TD*%
D11*
%TO.C,R5*%
X165100000Y-92710000D03*
D17*
X175260000Y-92710000D03*
%TD*%
D18*
%TO.C,J3*%
X112268000Y-52832000D03*
D19*
X112268000Y-50292000D03*
%TD*%
D11*
%TO.C,R1*%
X138540000Y-67310000D03*
D17*
X148700000Y-67310000D03*
%TD*%
D20*
%TO.C,J2*%
X175180000Y-68500000D03*
X175180000Y-66000000D03*
X170180000Y-73500000D03*
X165180000Y-68500000D03*
X165180000Y-66000000D03*
D21*
X175180000Y-73500000D03*
D22*
X170180000Y-68500000D03*
D21*
X165180000Y-73500000D03*
%TD*%
D23*
%TO.C,CON1*%
X103980000Y-107860000D03*
X160180000Y-112960000D03*
D24*
X162560000Y-125095000D03*
X160020000Y-125095000D03*
X157480000Y-125095000D03*
X154940000Y-125095000D03*
X152400000Y-125095000D03*
X149860000Y-125095000D03*
X147320000Y-125095000D03*
X144780000Y-125095000D03*
X142240000Y-125095000D03*
X139700000Y-125095000D03*
X137160000Y-125095000D03*
X134620000Y-125095000D03*
X132080000Y-125095000D03*
X129540000Y-125095000D03*
X127000000Y-125095000D03*
X124460000Y-125095000D03*
X121920000Y-125095000D03*
X119380000Y-125095000D03*
X116840000Y-125095000D03*
X114300000Y-125095000D03*
X111760000Y-125095000D03*
X109220000Y-125095000D03*
X106680000Y-125095000D03*
X104140000Y-125095000D03*
X101600000Y-125095000D03*
%TD*%
D12*
%TO.C,C13*%
X116840000Y-66608900D03*
D11*
X116840000Y-68608900D03*
%TD*%
D25*
%TO.C,Q2*%
X170836000Y-110236000D03*
D26*
X170836000Y-112776000D03*
X170836000Y-115316000D03*
%TD*%
D15*
%TO.C,U6*%
X136555000Y-79345000D03*
D16*
X136555000Y-81885000D03*
X136555000Y-84425000D03*
X136555000Y-86965000D03*
X136555000Y-89505000D03*
X136555000Y-92045000D03*
X136555000Y-94585000D03*
X136555000Y-97125000D03*
X136555000Y-99665000D03*
X136555000Y-102205000D03*
X144175000Y-102205000D03*
X144175000Y-99665000D03*
X144175000Y-97125000D03*
X144175000Y-94585000D03*
X144175000Y-92045000D03*
X144175000Y-89505000D03*
X144175000Y-86965000D03*
X144175000Y-84425000D03*
X144175000Y-81885000D03*
X144175000Y-79345000D03*
%TD*%
D11*
%TO.C,R4*%
X175260000Y-87884000D03*
D17*
X165100000Y-87884000D03*
%TD*%
D15*
%TO.C,U2*%
X153700000Y-79345000D03*
D16*
X153700000Y-81885000D03*
X153700000Y-84425000D03*
X153700000Y-86965000D03*
X153700000Y-89505000D03*
X153700000Y-92045000D03*
X153700000Y-94585000D03*
X153700000Y-97125000D03*
X153700000Y-99665000D03*
X153700000Y-102205000D03*
X161320000Y-102205000D03*
X161320000Y-99665000D03*
X161320000Y-97125000D03*
X161320000Y-94585000D03*
X161320000Y-92045000D03*
X161320000Y-89505000D03*
X161320000Y-86965000D03*
X161320000Y-84425000D03*
X161320000Y-81885000D03*
X161320000Y-79345000D03*
%TD*%
D27*
%TO.C,U5*%
X126365000Y-41245000D03*
D28*
X123825000Y-41245000D03*
X121285000Y-41245000D03*
X118745000Y-41245000D03*
X116205000Y-41245000D03*
X113665000Y-41245000D03*
X111125000Y-41245000D03*
X108585000Y-41245000D03*
X106045000Y-41245000D03*
X103505000Y-41245000D03*
X100965000Y-41245000D03*
X98425000Y-41245000D03*
X95885000Y-41245000D03*
X93345000Y-41245000D03*
X90805000Y-41245000D03*
X88265000Y-41245000D03*
X85725000Y-41245000D03*
X83185000Y-41245000D03*
X80645000Y-41245000D03*
X78105000Y-41245000D03*
X78105000Y-61565000D03*
X80645000Y-61565000D03*
X83185000Y-61565000D03*
X85725000Y-61565000D03*
X88265000Y-61565000D03*
X90805000Y-61565000D03*
X93345000Y-61565000D03*
X95885000Y-61565000D03*
X98425000Y-61565000D03*
X103505000Y-61565000D03*
X113665000Y-61565000D03*
X116205000Y-61565000D03*
X118745000Y-61565000D03*
X121285000Y-61565000D03*
X123825000Y-61565000D03*
X126365000Y-61565000D03*
%TD*%
D11*
%TO.C,C7*%
X123855000Y-74265000D03*
X121355000Y-74265000D03*
%TD*%
%TO.C,C10*%
X141635000Y-74265000D03*
X139135000Y-74265000D03*
%TD*%
%TO.C,C9*%
X158780000Y-74265000D03*
X156280000Y-74265000D03*
%TD*%
D29*
%TO.C,D1*%
X159385000Y-67310000D03*
D30*
X156845000Y-67310000D03*
%TD*%
D11*
%TO.C,C12*%
X126492000Y-67310000D03*
X123992000Y-67310000D03*
%TD*%
D15*
%TO.C,U4*%
X84485000Y-79345000D03*
D16*
X84485000Y-81885000D03*
X84485000Y-84425000D03*
X84485000Y-86965000D03*
X84485000Y-89505000D03*
X84485000Y-92045000D03*
X84485000Y-94585000D03*
X84485000Y-97125000D03*
X84485000Y-99665000D03*
X84485000Y-102205000D03*
X92105000Y-102205000D03*
X92105000Y-99665000D03*
X92105000Y-97125000D03*
X92105000Y-94585000D03*
X92105000Y-92045000D03*
X92105000Y-89505000D03*
X92105000Y-86965000D03*
X92105000Y-84425000D03*
X92105000Y-81885000D03*
X92105000Y-79345000D03*
%TD*%
D15*
%TO.C,U3*%
X118775000Y-79345000D03*
D16*
X118775000Y-81885000D03*
X118775000Y-84425000D03*
X118775000Y-86965000D03*
X118775000Y-89505000D03*
X118775000Y-92045000D03*
X118775000Y-94585000D03*
X118775000Y-97125000D03*
X118775000Y-99665000D03*
X118775000Y-102205000D03*
X126395000Y-102205000D03*
X126395000Y-99665000D03*
X126395000Y-97125000D03*
X126395000Y-94585000D03*
X126395000Y-92045000D03*
X126395000Y-89505000D03*
X126395000Y-86965000D03*
X126395000Y-84425000D03*
X126395000Y-81885000D03*
X126395000Y-79345000D03*
%TD*%
D12*
%TO.C,C2*%
X170244900Y-82042000D03*
D11*
X172744900Y-82042000D03*
%TD*%
D25*
%TO.C,Q1*%
X170836000Y-101346000D03*
D26*
X170836000Y-103886000D03*
X170836000Y-106426000D03*
%TD*%
D11*
%TO.C,R6*%
X165100000Y-97536000D03*
D17*
X175260000Y-97536000D03*
%TD*%
M02*
