%TF.GenerationSoftware,KiCad,Pcbnew,9.0.0*%
%TF.CreationDate,2025-05-26T13:28:11+01:00*%
%TF.ProjectId,WonderTANG,576f6e64-6572-4544-914e-472e6b696361,2.0b (RCC Rev 1)*%
%TF.SameCoordinates,Original*%
%TF.FileFunction,Profile,NP*%
%FSLAX46Y46*%
G04 Gerber Fmt 4.6, Leading zero omitted, Abs format (unit mm)*
G04 Created by KiCad (PCBNEW 9.0.0) date 2025-05-26 13:28:11*
%MOMM*%
%LPD*%
G01*
G04 APERTURE LIST*
%TA.AperFunction,Profile*%
%ADD10C,0.050000*%
%TD*%
G04 APERTURE END LIST*
D10*
X127635000Y-56515000D02*
X124460000Y-54610000D01*
X99060000Y-128270000D02*
X99695000Y-128905000D01*
X127635000Y-59690000D02*
X127635000Y-56515000D01*
X165100000Y-118745000D02*
X176750000Y-118745000D01*
X172720000Y-63500000D02*
X172720000Y-65405000D01*
X127635000Y-46355000D02*
X127635000Y-39370000D01*
X124460000Y-54610000D02*
X124460000Y-48260000D01*
X164465000Y-128905000D02*
X165100000Y-128270000D01*
X76835000Y-39370000D02*
X76835000Y-106045000D01*
X99695000Y-128905000D02*
X164465000Y-128905000D01*
X86995000Y-118745000D02*
X99060000Y-118745000D01*
X76835000Y-106045000D02*
X86995000Y-106045000D01*
X176750000Y-63500000D02*
X172720000Y-63500000D01*
X99060000Y-118745000D02*
X99060000Y-128270000D01*
X172720000Y-65405000D02*
X167640000Y-65405000D01*
X124460000Y-48260000D02*
X127635000Y-46355000D01*
X167640000Y-63500000D02*
X127635000Y-63500000D01*
X165100000Y-128270000D02*
X165100000Y-118745000D01*
X176750000Y-118745000D02*
X176750000Y-63500000D01*
X167640000Y-65405000D02*
X167640000Y-63500000D01*
X127635000Y-39370000D02*
X76835000Y-39370000D01*
X127635000Y-63500000D02*
X127635000Y-59690000D01*
X86995000Y-106045000D02*
X86995000Y-118745000D01*
M02*
